<?xml version="1.0" encoding="iso-8859-1"?>
<!-- Generator: Adobe Illustrator 16.0.0, SVG Export Plug-In . SVG Version: 6.00 Build 0)  -->
<!DOCTYPE svg PUBLIC "-//W3C//DTD SVG 1.1//EN" "http://www.w3.org/Graphics/SVG/1.1/DTD/svg11.dtd">
<svg version="1.1" id="Capa_1" xmlns="http://www.w3.org/2000/svg" xmlns:xlink="http://www.w3.org/1999/xlink" x="0px" y="0px"
	 width="412.029px" height="412.029px" viewBox="0 0 412.029 412.029" style="enable-background:new 0 0 412.029 412.029;"
	 xml:space="preserve">
<g>
	<g>
		<polygon points="253.828,217.719 253.828,182.108 218.217,182.108 		"/>
		<polygon points="139.375,182.108 91.265,182.108 91.265,239.482 196.75,239.482 		"/>
		<polygon points="272.953,236.844 275.592,239.482 330.328,239.482 330.328,182.108 272.953,182.108 		"/>
		<path d="M206.015,412.029c113.776,0,206.014-92.23,206.014-206.016C412.029,92.239,319.799,0,206.015,0C92.24,0,0,92.23,0,206.014
			C0.001,319.789,92.24,412.029,206.015,412.029z M206.015,41.205c91.026,0,164.809,73.784,164.809,164.811
			c0,39.76-14.086,76.223-37.531,104.689l-79.465-79.465l-49.132-49.131L101.325,78.737
			C129.792,55.29,166.254,41.205,206.015,41.205z M75.898,105.111l76.997,76.997l57.375,57.375l96.648,96.648
			c-27.895,21.67-62.846,34.693-100.904,34.693c-91.025,0-164.81-73.784-164.81-164.811
			C41.205,167.956,54.229,133.005,75.898,105.111z"/>
	</g>
	<path d="M309.057,169.191c-41-11.333-32-115.667-119-115.667C241.723,56.191,246.057,169.191,309.057,169.191z"/>
</g>
<g>
</g>
<g>
</g>
<g>
</g>
<g>
</g>
<g>
</g>
<g>
</g>
<g>
</g>
<g>
</g>
<g>
</g>
<g>
</g>
<g>
</g>
<g>
</g>
<g>
</g>
<g>
</g>
<g>
</g>
</svg>
