<?xml version="1.0" encoding="iso-8859-1"?>
<!-- Generator: Adobe Illustrator 19.0.0, SVG Export Plug-In . SVG Version: 6.00 Build 0)  -->
<svg version="1.1" id="Layer_1" xmlns="http://www.w3.org/2000/svg" xmlns:xlink="http://www.w3.org/1999/xlink" x="0px" y="0px"
	 viewBox="0 0 512 512" style="enable-background:new 0 0 512 512;" xml:space="preserve">
<g>
	<g>
		<path d="M336.133,275.707l-30.16,30.16l-37.523-37.523l27.843-27.843c14.852,10.152,32.386,15.626,50.767,15.626
			c24.102,0,46.76-9.386,63.802-26.429L512,128.561l-23.839-23.839l-78.672,78.672l-10.751-10.751l78.672-78.672l-23.839-23.839
			L374.9,148.804l-10.751-10.751l78.672-78.672l-23.839-23.839l-78.672,78.672l-10.751-10.751l78.672-78.672L384.395,0.955
			L283.257,102.094c-27.87,27.869-33.638,69.576-17.352,103.201l-96.05-96.05C132.79,72.18,79.707,54.639,27.853,62.323
			C15.591,64.141,5.556,72.582,1.667,84.353c-3.889,11.77-0.86,24.529,7.906,33.293l180.95,180.95l-7.717,7.717l-30.16-30.16
			L19.339,409.459c-23.201,23.203-23.201,60.954,0,84.156c11.24,11.24,26.184,17.43,42.078,17.43c15.895,0,30.839-6.19,42.077-17.43
			l133.307-133.307l-30.159-30.159l37.968-37.968l37.523,37.523l-30.159,30.159L385.283,493.17
			c11.239,11.24,26.183,17.43,42.077,17.43s30.839-6.19,42.078-17.429c23.201-23.202,23.201-60.954,0-84.157L336.133,275.707z
			 M305.758,127.338l79.861,79.861c-10.501,9.819-24.112,15.216-38.559,15.216c-15.097,0-29.29-5.88-39.965-16.554
			C285.519,184.284,285.083,149.468,305.758,127.338z M79.657,469.778c-4.872,4.872-11.349,7.555-18.238,7.555
			c-6.889,0-13.367-2.684-18.239-7.555h-0.001c-10.057-10.058-10.057-26.422,0-36.479L152.648,323.83l36.48,36.479L79.657,469.778z
			 M214.362,274.756L34.973,95.368c40.647-5.324,82.011,8.682,111.043,37.716l105.01,105.008L214.362,274.756z M445.601,469.333
			c-4.873,4.872-11.35,7.555-18.24,7.555c-6.89,0-13.368-2.682-18.239-7.555L299.654,359.864l36.48-36.479l109.469,109.469
			C455.659,442.911,455.659,459.275,445.601,469.333z"/>
	</g>
</g>
<g>
</g>
<g>
</g>
<g>
</g>
<g>
</g>
<g>
</g>
<g>
</g>
<g>
</g>
<g>
</g>
<g>
</g>
<g>
</g>
<g>
</g>
<g>
</g>
<g>
</g>
<g>
</g>
<g>
</g>
</svg>
