<?xml version="1.0" encoding="iso-8859-1"?>
<!-- Generator: Adobe Illustrator 19.0.0, SVG Export Plug-In . SVG Version: 6.00 Build 0)  -->
<svg version="1.1" id="Layer_1" xmlns="http://www.w3.org/2000/svg" xmlns:xlink="http://www.w3.org/1999/xlink" x="0px" y="0px"
	 viewBox="0 0 512 512" style="enable-background:new 0 0 512 512;" xml:space="preserve">
<g>
	<g>
		<path d="M489.739,267.13c-9.217,0-16.696,7.473-16.696,16.696v83.478h-50.087c-27.619,0-50.087,22.468-50.087,50.087
			c0,43.526,0,34.087,0,77.913c0,9.223,7.479,16.696,16.696,16.696c9.217,0,16.696-7.473,16.696-16.696v-27.826h66.783v27.826
			c0,9.223,7.479,16.696,16.696,16.696s16.696-7.473,16.696-16.696c0-76.379,0-138.167,0-211.478
			C506.435,274.603,498.956,267.13,489.739,267.13z"/>
	</g>
</g>
<g>
	<g>
		<path d="M89.044,367.304H38.957v-83.478c0-9.223-7.479-16.696-16.696-16.696s-16.696,7.473-16.696,16.696
			c0,73.325,0,135.094,0,211.478c0,9.223,7.479,16.696,16.696,16.696s16.696-7.473,16.696-16.696v-27.826h66.783v27.826
			c0,9.223,7.479,16.696,16.696,16.696c9.217,0,16.696-7.473,16.696-16.696c0-43.782,0-34.344,0-77.913
			C139.13,389.772,116.663,367.304,89.044,367.304z"/>
	</g>
</g>
<g>
	<g>
		<path d="M5.565,217.043c0,9.223,7.479,16.696,16.696,16.696h100.174V133.565c0-39.048,16.946-74.124,43.748-98.569
			C75.777,46.385,5.565,123.595,5.565,217.043z"/>
	</g>
</g>
<g>
	<g>
		<path d="M345.817,34.996c26.802,24.445,43.748,59.521,43.748,98.569v100.174h100.174c9.217,0,16.696-7.473,16.696-16.696
			C506.435,123.595,436.223,46.385,345.817,34.996z"/>
	</g>
</g>
<g>
	<g>
		<path d="M272.696,34.899V16.696C272.696,7.473,265.217,0,256,0s-16.696,7.473-16.696,16.696v18.204
			c-47.302,7.986-83.478,49.131-83.478,98.666v100.174h83.478v33.391h33.391v-33.391h83.478V133.565
			C356.174,84.03,319.998,42.886,272.696,34.899z"/>
	</g>
</g>
<g>
	<g>
		<path d="M356.174,300.522c-66.904,0-133.464,0-200.348,0c-9.217,0-16.696,7.473-16.696,16.696c0,9.223,7.479,16.696,16.696,16.696
			h50.087v16.696c0,21.737,14,40.096,33.391,47.01v80.99h-16.696c-9.217,0-16.696,7.473-16.696,16.696
			c0,9.223,7.479,16.696,16.696,16.696h66.783c9.217,0,16.696-7.473,16.696-16.696c0-9.223-7.479-16.696-16.696-16.696h-16.696
			v-80.99c19.391-6.914,33.391-25.274,33.391-47.01v-16.696h50.087c9.217,0,16.696-7.473,16.696-16.696
			C372.87,307.995,365.391,300.522,356.174,300.522z"/>
	</g>
</g>
<g>
</g>
<g>
</g>
<g>
</g>
<g>
</g>
<g>
</g>
<g>
</g>
<g>
</g>
<g>
</g>
<g>
</g>
<g>
</g>
<g>
</g>
<g>
</g>
<g>
</g>
<g>
</g>
<g>
</g>
</svg>
